<?xml version="1.0" encoding="UTF-8"?><svg id="Grå" xmlns="http://www.w3.org/2000/svg" viewBox="0 0 440.6 96.95"><defs><style>.cls-1{fill:#1d1d1b;}.cls-1,.cls-2{stroke-width:0px;}.cls-2{fill:#56b257;}</style></defs><path class="cls-2" d="M188.93,66.85c0,9.42-6.63,15.88-15.52,15.88-5.15,0-9.48-2.25-12.02-6.46v6.16h-4.03v-43.95h4.21v18.72c2.61-4.03,6.87-6.16,11.85-6.16,8.88,0,15.52,6.4,15.52,15.82ZM184.72,66.85c0-7.29-5.04-12.14-11.61-12.14s-11.61,4.86-11.61,12.14,4.98,12.14,11.61,12.14,11.61-4.86,11.61-12.14Z"/><path class="cls-2" d="M194.37,66.85c0-9.24,6.75-15.82,15.88-15.82s15.82,6.58,15.82,15.82-6.69,15.88-15.82,15.88-15.88-6.63-15.88-15.88ZM221.8,66.85c0-7.29-4.92-12.14-11.55-12.14s-11.61,4.86-11.61,12.14,4.98,12.14,11.61,12.14,11.55-4.86,11.55-12.14Z"/><path class="cls-2" d="M250.35,51.04v4.09c-.36,0-.71-.06-1.01-.06-6.52,0-10.48,4.15-10.48,11.49v15.88h-4.21v-31.16h4.03v6.1c1.95-4.15,5.92-6.34,11.67-6.34Z"/><path class="cls-2" d="M287.25,51.27v27.37c0,10.72-5.27,15.58-15.58,15.58-5.69,0-11.25-1.72-14.51-4.8l2.13-3.2c2.96,2.67,7.46,4.26,12.26,4.26,7.88,0,11.49-3.61,11.49-11.31v-3.97c-2.61,3.97-7.05,6.04-12.14,6.04-8.88,0-15.64-6.22-15.64-15.16s6.75-15.05,15.64-15.05c5.21,0,9.71,2.13,12.32,6.22v-5.98h4.03ZM283.16,66.08c0-6.75-4.98-11.37-11.85-11.37s-11.79,4.62-11.79,11.37,4.92,11.43,11.79,11.43,11.85-4.68,11.85-11.43Z"/><path class="cls-2" d="M326.16,68.16h-26.06c.47,6.52,5.45,10.84,12.26,10.84,3.79,0,7.17-1.36,9.54-4.09l2.37,2.72c-2.78,3.32-7.11,5.09-12.03,5.09-9.71,0-16.35-6.63-16.35-15.88s6.46-15.82,15.22-15.82,15.1,6.46,15.1,15.82c0,.36-.06.83-.06,1.3ZM300.1,65.02h22.09c-.53-6.1-4.98-10.37-11.08-10.37s-10.48,4.26-11.02,10.37Z"/><path class="cls-2" d="M350.5,51.04v4.09c-.36,0-.71-.06-1.01-.06-6.52,0-10.48,4.15-10.48,11.49v15.88h-4.21v-31.16h4.03v6.1c1.95-4.15,5.92-6.34,11.67-6.34Z"/><path class="cls-2" d="M391.91,55.18c0,8.83-6.4,14.16-16.94,14.16h-11.14v13.09h-4.38v-41.46h15.52c10.54,0,16.94,5.33,16.94,14.22ZM387.52,55.18c0-6.63-4.38-10.42-12.68-10.42h-11.02v20.73h11.02c8.29,0,12.68-3.79,12.68-10.31Z"/><path class="cls-2" d="M398.3,61.7c0-12.14,9.24-21.09,21.74-21.09,6.04,0,11.49,2.01,15.16,6.04l-2.78,2.78c-3.38-3.44-7.52-4.92-12.26-4.92-10.01,0-17.53,7.34-17.53,17.18s7.52,17.18,17.53,17.18c4.74,0,8.89-1.48,12.26-4.98l2.78,2.78c-3.67,4.03-9.12,6.1-15.22,6.1-12.44,0-21.68-8.94-21.68-21.09Z"/><path class="cls-1" d="M134.32,25.31l5.25-11.15c-6.97-4.61-16.51-7.72-26.26-7.72-16.29,0-27.33,8.04-27.33,20.9,0,26.69,40.51,17.36,40.51,34.08,0,5.79-5.25,9.11-14.04,9.11-8.03,0-17.68-3.86-25.4-10.93l-5.47,10.93c7.72,7.07,18.86,11.89,30.65,11.89,16.51,0,28.3-8.25,28.3-21.64.1-27.01-40.41-18.22-40.41-34.62,0-5.04,4.82-7.83,12.22-7.83,5.68,0,13.83,2.04,21.97,6.97"/><path class="cls-1" d="M80.52,44.49c0-15.36-8.94-28.12-22.25-34.12l-4.97,10.66c8.46,4.38,14.25,13.11,14.25,23.46,0,14.9-12,26.69-26.69,26.69s-27.01-11.79-27.01-26.69c0-10.31,5.86-19.03,14.37-23.42l-4.99-10.71C9.93,16.34,1,29.05,1,44.49c0,21.44,17.36,38.05,39.76,38.05s39.76-16.61,39.76-38.05"/><rect class="cls-1" x="34.95" y="1.47" width="11.56" height="31.56"/><path class="cls-1" d="M162.99,18.38l-9.15,9.38v5.18h22.02v-6.26h-12.33l5.63-5.85c2.21-2.29,3.72-4.18,4.53-5.65.82-1.47,1.23-3.02,1.23-4.62,0-2.95-1.02-5.28-3.06-6.99-2.04-1.71-4.41-2.57-7.1-2.57s-4.91.58-6.65,1.74c-1.74,1.16-3.35,2.87-4.8,5.14l5.58,3.31c1.76-2.8,3.62-4.2,5.58-4.2,1.07,0,1.95.35,2.63,1.05.69.7,1.03,1.57,1.03,2.61s-.39,2.12-1.18,3.24c-.79,1.12-2.11,2.61-3.95,4.49"/></svg>